# xmcd
#
# Track frame offsets:
#       150
#       15601
#       30321
#       45322
#       62123
#       75793
#       89369
#       106452
#       119709
#       145060
#       160061
#       176543
#
# Disc length: 2602 seconds
#
# Revision: 1
# Processed by: cddbd v1.4PL0 Copyright (c) Steve Scherf et al.
# Submitted via: MusiCat 1.0
#
DISCID=8a0a280c
DTITLE=Sean Panting - Pop Disaster
DYEAR=1900
DGENRE=
TTITLE0=68 A
TTITLE1=Win, Win
TTITLE2=Pop Disaster
TTITLE3=Emergency Roadside Assistance
TTITLE4=Gone to Hell
TTITLE5=Surprise
TTITLE6=The Superspy Song
TTITLE7=Victory Lap
TTITLE8=3 O'Clock Drunk
TTITLE9=Sweet Revenge
TTITLE10=Presentation Cheque
TTITLE11=Evidence of Me
EXTD=0\n\n\n
EXTT0=
EXTT1=
EXTT2=
EXTT3=
EXTT4=
EXTT5=
EXTT6=
EXTT7=
EXTT8=
EXTT9=
EXTT10=
EXTT11=
PLAYORDER=
